<?xml version="1.0" encoding="iso-8859-1"?>
<!-- Generator: Adobe Illustrator 19.0.0, SVG Export Plug-In . SVG Version: 6.00 Build 0)  -->
<svg xmlns="http://www.w3.org/2000/svg" xmlns:xlink="http://www.w3.org/1999/xlink" version="1.1" id="Layer_1" x="0px" y="0px" viewBox="0 0 512 512" style="enable-background:new 0 0 512 512;" xml:space="preserve" width="512px" height="512px">
<g>
	<g>
		<path d="M255.999,213.519c-20.084,0-36.425,16.34-36.425,36.426c0,20.084,16.341,36.425,36.425,36.425    c20.085,0,36.425-16.34,36.425-36.425C292.423,229.859,276.083,213.519,255.999,213.519z" fill="#FFFFFF"/>
	</g>
</g>
<g>
	<g>
		<path d="M506.078,144.208c-139.75-134.626-360.593-134.446-500.157,0c-7.69,7.408-7.919,19.645-0.513,27.336    c10.072,10.457,183.827,190.874,193.735,201.162c-22.796,41.543,5.826,95.988,56.857,95.988c51.032,0,79.65-54.447,56.857-95.987    c23.384-24.281,173.707-180.363,193.735-201.163C513.999,163.853,513.768,151.614,506.078,144.208z M280.141,413.709    c-1.544,3.828-7.848,16.316-24.142,16.316c-16.294,0-22.599-12.494-24.143-16.323c-7.776-19.274,7.582-36.034,24.141-36.034    C272.521,377.667,287.934,394.38,280.141,413.709z M285.034,345.848c-18.194-9.188-39.896-9.17-58.073,0l-89.115-92.53    l118.152-118.151l118.15,118.149C351.545,276.786,306.393,323.67,285.034,345.848z" fill="#FFFFFF"/>
	</g>
</g>
<g>
</g>
<g>
</g>
<g>
</g>
<g>
</g>
<g>
</g>
<g>
</g>
<g>
</g>
<g>
</g>
<g>
</g>
<g>
</g>
<g>
</g>
<g>
</g>
<g>
</g>
<g>
</g>
<g>
</g>
</svg>
